<svg enable-background="new 0 0 32 32" height="512" viewBox="0 0 32 32" width="512" xmlns="http://www.w3.org/2000/svg"><path d="m26 32h-20c-3.314 0-6-2.686-6-6v-20c0-3.314 2.686-6 6-6h20c3.314 0 6 2.686 6 6v20c0 3.314-2.686 6-6 6z" fill="#fff9dd"/><path d="m23.684 11.401c-.026-.266-.154-.506-.361-.676l-1.545-1.27c-.426-.35-1.057-.288-1.407.138l-6.497 7.907-2.61-2.237c-.419-.357-1.051-.31-1.41.109l-1.301 1.519c-.174.202-.258.461-.238.727s.144.509.346.683l4.936 4.23c.183.157.411.241.649.241.03 0 .059-.001.089-.004.27-.024.513-.152.685-.361l8.442-10.274c.169-.206.248-.467.222-.732z" fill="#ffd200"/></svg>